Patient4_TMGait_0pt2_01_left_06_GRF.mot
version=1
nRows=26
nColumns=19
inDegrees=no
endheader
time	F1x	F1y	F1z	M1x	M1y	M1z	F2x	F2y	F2z	M2x	M2y	M2z	EC1x	EC1y	EC1z	EC2x	EC2y	EC2z
12.67	-0.22013	89.1516	11.6421	-30.3937	-11.5609	85.4753	-18.9594	711.7202	-33.2292	258.0869	42.6088	745.6995	-0.0592	0.0182	-0.0073	-0.0462	0.0165	0.9585
12.6931	-1.2734	77.5074	11.2025	-26.5255	-11.4263	74.4918	-17.6274	723.907	-33.8207	262.048	42.6384	757.135	-0.0592	0.0182	-0.0073	-0.0462	0.0165	0.9585
12.7161	-2.3742	63.9604	10.2822	-21.9652	-10.8519	61.6254	-16.5044	738.3154	-34.6726	266.8057	42.8811	770.5538	-0.0592	0.0182	-0.0073	-0.0462	0.0165	0.9585
12.7392	-3.3012	49.6039	8.8751	-17.0862	-9.7568	47.9221	-15.5751	754.2299	-35.7645	272.1221	43.3194	785.2083	-0.0592	0.0182	-0.0073	-0.0462	0.0165	0.9585
12.7623	-3.7942	35.7018	7.0985	-12.3309	-8.1668	34.6041	-14.7256	770.6713	-37.0385	277.6492	43.8792	800.0799	-0.0592	0.0182	-0.0073	-0.0462	0.0165	0.9585
12.7854	-3.7163	23.3997	5.1809	-8.1024	-6.2596	22.7795	-13.8316	786.3617	-38.42	282.9171	44.4651	813.8646	-0.0592	0.0182	-0.0073	-0.0462	0.0165	0.9585
12.8084	-3.2197	13.5008	3.4047	-4.6871	-4.3611	13.2348	-12.814	799.7962	-39.8139	287.3674	44.9741	825.0693	-0.0592	0.0182	-0.0073	-0.0462	0.0165	0.9585
12.8315	-2.5664	6.235	1.965	-2.1712	-2.7485	6.2043	-11.642	809.5082	-41.0935	290.459	45.2868	832.2814	-0.0592	0.0182	-0.0073	-0.0462	0.0165	0.9585
12.8546	-1.9309	1.325	0.91701	-0.4633	-1.5307	1.4235	-10.2961	814.4465	-42.1106	291.8111	45.2675	834.5163	-0.0592	0.0182	-0.0073	-0.0462	0.0165	0.9585
12.8776	-1.402	-1.7604	0.23005	0.6185	-0.70475	-1.6242	-8.7351	814.278	-42.7187	291.3169	44.7772	831.4779	-0.0592	0.0182	-0.0073	-0.0462	0.0165	0.9585
12.9007	-1.0071	-3.6187	-0.16877	1.2826	-0.20575	-3.517	-6.9003	809.4944	-42.7966	289.1829	43.6925	823.6478	-0.0592	0.0182	-0.0073	-0.0462	0.0165	0.9585
12.9238	-0.73589	-4.7925	-0.36552	1.7191	0.055668	-4.7856	-4.7211	801.2795	-42.2859	285.8759	41.9434	812.156	-0.0592	0.0182	-0.0073	-0.0462	0.0165	0.9585
12.9469	-0.55628	-5.7039	-0.44411	2.0744	0.1749	-5.8425	-2.1187	791.1886	-41.2125	281.9989	39.5386	798.4672	-0.0592	0.0182	-0.0073	-0.0462	0.0165	0.9585
12.9699	-0.42297	-6.6126	-0.4798	2.4366	0.24774	-6.9316	0.98045	780.7869	-39.6717	278.1511	36.554	784.0412	-0.0592	0.0182	-0.0073	-0.0462	0.0165	0.9585
12.993	-0.28336	-7.5891	-0.53565	2.823	0.36215	-8.0952	4.6138	771.3464	-37.8184	274.8107	33.1336	770.0726	-0.0592	0.0182	-0.0073	-0.0462	0.0165	0.9585
13.0161	-0.080017	-8.4734	-0.66359	3.1651	0.59444	-9.1355	8.7417	763.6515	-35.8537	272.2579	29.4878	757.3386	-0.0592	0.0182	-0.0073	-0.0462	0.0165	0.9585
13.0391	0.2448	-8.8291	-0.90219	3.2941	1.006	-9.5692	13.2393	757.9579	-33.9945	270.5588	25.8685	746.1871	-0.0592	0.0182	-0.0073	-0.0462	0.0165	0.9585
13.0622	0.7417	-7.9141	-1.2686	2.9289	1.6318	-8.5912	17.9163	754.0349	-32.4323	269.5863	22.5238	736.5762	-0.0592	0.0182	-0.0073	-0.0462	0.0165	0.9585
13.0853	1.4454	-4.6759	-1.7541	1.6741	2.4692	-5.0538	22.5183	751.2141	-31.3046	269.0425	19.6691	728.1136	-0.0592	0.0182	-0.0073	-0.0462	0.0165	0.9585
13.1084	2.3532	2.2044	-2.3128	-0.96343	3.459	2.4925	26.7097	748.3615	-30.6944	268.4539	17.4923	720.0185	-0.0592	0.0182	-0.0073	-0.0462	0.0165	0.9585
13.1314	3.3983	14.1823	-2.8418	-5.5258	4.4587	15.6508	30.0915	743.8997	-30.6084	267.1917	16.1313	711.1045	-0.0592	0.0182	-0.0073	-0.0462	0.0165	0.9585
13.1545	4.4123	32.585	-3.1601	-12.5044	5.2063	35.8821	32.2749	735.9886	-30.9364	264.549	15.616	699.8927	-0.0592	0.0182	-0.0073	-0.0462	0.0165	0.9585
13.1776	5.0814	58.174	-2.9921	-22.1726	5.2823	64.0407	32.9814	722.7813	-31.4504	259.8402	15.8323	684.8017	-0.0592	0.0182	-0.0073	-0.0462	0.0165	0.9585
13.2006	4.8976	90.6209	-1.9988	-34.3863	4.124	99.7927	32.108	702.7279	-31.8536	252.5142	16.5437	664.4051	-0.0592	0.0182	-0.0073	-0.0462	0.0165	0.9585
13.2237	3.5444	128.3237	0.13984	-48.5183	1.2627	141.3838	29.7807	674.995	-31.8626	242.3082	17.4497	637.8066	-0.0592	0.0182	-0.0073	-0.0462	0.0165	0.9585
13.2468	1.2034	168.9831	3.4667	-63.6976	-3.2732	186.2306	26.3814	639.9616	-31.2779	229.4197	18.2363	605.1104	-0.0592	0.0182	-0.0073	-0.0462	0.0165	0.9585
